<svg width="131" height="114" viewBox="0 0 131 114" fill="none" xmlns="http://www.w3.org/2000/svg">
<circle cx="65.5" cy="27.968" r="27.745" fill="white"/>
<circle cx="93.245" cy="89.5" r="4.143" fill="white"/>
<path d="M44.624 73.89C42.8074 72.0376 40.3471 70.9561 37.754 70.87C35.109 70.9261 32.6004 72.0548 30.804 73.997C35.356 73.0268 40.0575 72.9904 44.624 73.89Z" fill="white"/>
<path d="M130.854 103.4C127.64 82.8895 115.036 65.0552 96.774 55.18C97.603 61.114 98.431 71.08 96.453 79.905C101.336 81.5394 104.203 86.5899 103.104 91.6201C102.004 96.6504 97.292 100.045 92.1726 99.4935C87.0533 98.9424 83.1713 94.6229 83.168 89.474C83.1594 84.7939 86.4051 80.7368 90.973 79.718C93.673 69.318 91.481 55.929 90.866 52.4C90.1556 52.0728 89.4231 51.7958 88.674 51.571C75.9243 64.1045 55.5106 64.1994 42.645 51.785C40.7483 56.1695 39.9325 60.9455 40.266 65.711C49.087 67.368 55.849 77.552 55.849 89.928C55.8771 94.366 54.9565 98.7587 53.149 102.812C52.213 105.619 48.149 106.768 46.279 106.768C44.4476 106.794 42.7443 105.831 41.8211 104.25C40.8979 102.668 40.8979 100.711 41.8211 99.1294C42.7443 97.5476 44.4476 96.5853 46.279 96.611C47.381 96.6587 48.4704 96.8659 49.513 97.226C51.0012 91.8291 50.8241 86.1085 49.005 80.814C39.035 76.457 29.893 79.451 26.552 80.814C24.7044 86.1033 24.527 91.8326 26.044 97.226C27.0675 96.7856 28.1644 96.5407 29.278 96.504C31.1094 96.4783 32.8127 97.4406 33.7359 99.0224C34.6591 100.604 34.6591 102.561 33.7359 104.143C32.8127 105.724 31.1094 106.687 29.278 106.661C27.514 106.661 23.558 105.512 22.515 102.919C20.6218 98.8137 19.6631 94.3395 19.708 89.819C19.708 77.657 26.364 67.58 34.971 65.709C34.7938 61.8336 35.1808 57.953 36.12 54.189C16.8687 63.8011 3.46296 82.1396 0.145999 103.4C-0.238234 105.92 0.494537 108.482 2.15301 110.418C3.81148 112.353 6.23103 113.47 8.78 113.477H122.14C124.704 113.497 127.148 112.391 128.825 110.452C130.502 108.512 131.244 105.934 130.854 103.4Z" fill="white"/>
</svg>
