<svg width="353" height="300" viewBox="0 0 353 300" fill="none" xmlns="http://www.w3.org/2000/svg">
<path d="M135.896 139.125H78.7439V202.977H135.896V139.125Z" fill="#CCCCCC"/>
<path d="M49.6483 299.015H20.5525L17.4351 274.097H52.7657L49.6483 299.015Z" fill="#E6E6E6"/>
<path d="M108.074 280.966L107.092 294.378C107.047 294.985 107.133 295.594 107.344 296.166C107.555 296.737 107.885 297.256 108.313 297.689C108.741 298.123 109.257 298.459 109.826 298.677C110.395 298.894 111.004 298.988 111.612 298.951L118.507 298.534C118.826 298.514 119.137 298.425 119.418 298.272C119.699 298.119 119.943 297.906 120.132 297.648C120.322 297.39 120.452 297.093 120.513 296.78C120.575 296.466 120.567 296.142 120.489 295.832L116.662 280.537L108.074 280.966Z" fill="#E6E6E6"/>
<path d="M165.743 288.897C173.858 290.794 179.654 293.489 183.462 297.138C184.818 298.427 186.593 299.187 188.462 299.279C190.851 299.405 192.803 299.137 194.271 298.483H194.271C194.647 298.317 194.972 298.054 195.212 297.721C195.451 297.387 195.597 296.996 195.635 296.587C195.679 296.172 195.612 295.753 195.439 295.372C195.267 294.992 194.995 294.665 194.654 294.424L175.409 280.743L167.235 284.01L165.328 285.916C165.121 286.122 164.966 286.373 164.873 286.65C164.78 286.926 164.753 287.221 164.793 287.51C164.833 287.799 164.94 288.074 165.105 288.315C165.27 288.556 165.488 288.755 165.743 288.897H165.743Z" fill="#E6E6E6"/>
<path d="M140.772 69.9231L85.7634 69.4142C85.9018 61.409 87.7659 53.5481 91.8406 46.5137C94.5168 41.8938 94.459 36.8659 93.8141 32.6301C92.8188 26.0933 95.1332 19.4051 100.276 15.244C104.206 12.0585 109.166 10.4187 114.223 10.6335L115.291 10.6779C118.77 10.8224 122.157 11.8379 125.141 13.6311C128.125 15.4244 130.611 17.9379 132.369 20.9409C134.156 24.1468 134.877 27.8375 134.427 31.4795C134.079 34.9064 134.913 38.3682 136.864 41.863C140.231 49.5369 140.96 59.3568 140.772 69.9231Z" fill="#2F2E41"/>
<path d="M177.575 281.456L166.779 284.27L114.207 169.837L117.493 281.456H106.697C95.161 228.943 74.3331 168.336 83.6971 149.202L139.555 145.919L177.575 281.456Z" fill="#F9A826"/>
<path d="M113.738 50.7138C121.774 50.7138 128.289 44.2046 128.289 36.1751C128.289 28.1457 121.774 21.6365 113.738 21.6365C105.702 21.6365 99.187 28.1457 99.187 36.1751C99.187 44.2046 105.702 50.7138 113.738 50.7138Z" fill="#FFB9B9"/>
<path d="M126.412 62.9075L102.473 61.5006C104.819 56.1205 105.756 50.9397 104.82 46.0239H122.656C122.616 49.7983 124.496 56.3272 126.412 62.9075Z" fill="#FFB9B9"/>
<path d="M141.432 150.139L88.8606 153.892L94.2584 60.7971L103.412 58.2176L113.738 60.5625L124.064 55.4034L130.636 57.7488L141.432 150.139Z" fill="#F9A826"/>
<path d="M97.7788 217.205L61.8704 208.998C72.5479 173.62 91.7838 92.6874 85.5747 63.8455L104.35 55.4037L97.7788 217.205Z" fill="#E6E6E6"/>
<path d="M80.4114 114.965L66.799 106.524L78.4079 72.5524C79.7027 69.047 82.1827 66.1038 85.4191 64.2317L89.3298 61.9696L86.9828 96.2057L80.4114 114.965Z" fill="#E6E6E6"/>
<path d="M172.647 209.467C161.313 216.018 132.983 219.67 120.544 215.095C119.629 183.131 117.834 92.7169 123.595 54.4657L144.248 62.9075L142.371 88.2329C132.497 109.897 161.169 185.355 172.647 209.467Z" fill="#E6E6E6"/>
<path d="M171.004 110.745L158.33 106.524L141.432 87.2948L144.249 62.9074L172.412 102.303L171.004 110.745Z" fill="#E6E6E6"/>
<path d="M131.285 128.999C131.492 129.908 132.052 130.698 132.842 131.196C133.631 131.693 134.586 131.858 135.496 131.653L146.254 129.219L144.7 122.358L133.941 124.791C133.031 124.998 132.239 125.557 131.741 126.346C131.243 127.135 131.079 128.089 131.285 128.999Z" fill="#FFB9B9"/>
<path d="M126.412 32.4232C118.329 29.1026 110.347 28.8624 102.473 31.9542L99.187 20.2295H129.228L126.412 32.4232Z" fill="#2F2E41"/>
<path d="M140.963 121.062L147.065 132.318C157.328 129.458 166.223 120.441 174.759 109.806L172.412 102.303L157.861 106.055L140.963 121.062Z" fill="#E6E6E6"/>
<path d="M136.503 97.8472H134.626C134.626 71.3145 129.158 52.8243 123.83 52.8243L123.361 50.9483C128.139 50.9483 131.185 58.6438 132.9 65.0997C135.224 73.8518 136.503 85.4817 136.503 97.8472Z" fill="#3F3D56"/>
<path d="M93.3196 91.2814H91.442C91.442 66.9816 96.9475 51.8863 105.054 51.8863L104.585 53.7622C98.9775 53.7622 93.3196 65.3635 93.3196 91.2814Z" fill="#3F3D56"/>
<path d="M135.565 103.006C138.157 103.006 140.259 100.906 140.259 98.3162C140.259 95.726 138.157 93.6263 135.565 93.6263C132.972 93.6263 130.871 95.726 130.871 98.3162C130.871 100.906 132.972 103.006 135.565 103.006Z" fill="#3F3D56"/>
<path d="M85.8094 102.537H83.9318C83.9318 95.8135 87.722 90.3434 92.3808 90.3434V92.2193C88.7573 92.2193 85.8094 96.8479 85.8094 102.537Z" fill="#3F3D56"/>
<path d="M100.83 102.537H98.9523C98.9523 96.8479 96.0044 92.2193 92.3808 92.2193V90.3434C97.0396 90.3434 100.83 95.8135 100.83 102.537Z" fill="#3F3D56"/>
<path d="M99.8911 104.882C100.928 104.882 101.769 104.042 101.769 103.006C101.769 101.97 100.928 101.13 99.8911 101.13C98.8541 101.13 98.0135 101.97 98.0135 103.006C98.0135 104.042 98.8541 104.882 99.8911 104.882Z" fill="#3F3D56"/>
<path d="M84.8705 104.882C85.9075 104.882 86.7481 104.042 86.7481 103.006C86.7481 101.97 85.9075 101.13 84.8705 101.13C83.8336 101.13 82.993 101.97 82.993 103.006C82.993 104.042 83.8336 104.882 84.8705 104.882Z" fill="#3F3D56"/>
<path d="M61.401 85.7556L73.1157 87.8455L99.891 125.885L85.6663 122.541L61.401 85.7556Z" fill="#F9A826"/>
<path d="M59.3232 85.2898C59.1447 85.2925 58.9701 85.3431 58.8179 85.4362C58.6656 85.5294 58.5412 85.6617 58.4577 85.8193C58.3741 85.9769 58.3345 86.1541 58.3429 86.3323C58.3513 86.5105 58.4076 86.6831 58.5056 86.8322L83.5339 124.774C83.6736 124.986 83.8893 125.136 84.1367 125.194L95.7816 127.932C95.9779 127.978 96.1837 127.964 96.3715 127.89C96.5594 127.817 96.7205 127.688 96.8335 127.521C96.9464 127.354 97.006 127.157 97.0041 126.955C97.0022 126.754 96.9391 126.558 96.823 126.393L69.3436 87.3538C69.269 87.2475 69.1743 87.1568 69.0646 87.0871C68.955 87.0173 68.8328 86.9698 68.7048 86.9473L59.5109 85.3068C59.4489 85.2957 59.3861 85.29 59.3232 85.2898Z" fill="#3F3D56"/>
<path d="M74.9359 112.418L75.6315 119.418L86.6081 118.33C87.5372 118.237 88.3916 117.78 88.9834 117.059C89.5752 116.337 89.8558 115.41 89.7636 114.482C89.6714 113.554 89.2139 112.7 88.4917 112.109C87.7695 111.517 86.8418 111.237 85.9127 111.329L74.9359 112.418Z" fill="#FFB9B9"/>
<path d="M65.3911 111.607C65.407 113.994 66.3665 116.278 68.0605 117.961C69.7546 119.644 72.0458 120.59 74.4349 120.593H76.2398L77.5538 109.652L66.6741 105.739L65.3911 111.607Z" fill="#E6E6E6"/>
<path d="M13.0808 264.879C20.5728 274.904 36.1247 275.959 36.1247 275.959C36.1247 275.959 39.5297 260.761 32.0377 250.736C24.5457 240.711 8.99387 239.656 8.99387 239.656C8.99387 239.656 5.58886 254.854 13.0808 264.879Z" fill="#E6E6E6"/>
<path d="M51.2466 268.648C46.3028 275.263 36.0406 275.959 36.0406 275.959C36.0406 275.959 33.7938 265.93 38.7375 259.315C43.6812 252.7 53.9435 252.004 53.9435 252.004C53.9435 252.004 56.1903 262.033 51.2466 268.648Z" fill="#E6E6E6"/>
</svg>
