<svg width="345" height="355" viewBox="0 0 345 355" fill="none" xmlns="http://www.w3.org/2000/svg">
<g clip-path="url(#clip0_14_431)">
<path opacity="0.1" d="M167.227 354.8C191.722 354.8 211.58 351.623 211.58 347.703C211.58 343.783 191.722 340.605 167.227 340.605C142.731 340.605 122.873 343.783 122.873 347.703C122.873 351.623 142.731 354.8 167.227 354.8Z" fill="#F9A826"/>
<path opacity="0.1" d="M85.7982 219.203H72.8527V232.101H85.7982V219.203Z" fill="#F9A826"/>
<path opacity="0.1" d="M42.9742 264.18C43.3885 264.415 43.8118 264.633 44.2397 264.869V264.642H47.8812V266.683L48.655 267.041V264.642H52.2965V268.565C52.3663 268.6 52.4395 268.627 52.515 268.647V264.18H42.9742Z" fill="#F9A826"/>
<path d="M210.114 172.194C210.114 172.194 208.321 171.944 208.321 169.341C208.321 166.738 207.037 161.876 207.037 161.876C207.037 161.853 205.927 153.408 204.393 152.066C202.859 150.723 200.888 142.841 200.888 142.841C200.888 142.841 200.551 138.564 199.864 137.643C199.176 136.723 198.248 134.469 196.878 131.253C195.507 128.037 189.795 125.811 189.795 125.811C189.795 125.811 179.467 119.842 176.54 117.896C176.274 117.737 176.025 117.55 175.798 117.339C175.288 116.672 173.067 116.658 173.067 116.658C172.835 115.198 172.612 113.52 172.539 112C172.539 111.837 172.539 111.674 172.516 111.511C175.78 109.588 178.238 106.558 179.439 102.975C179.494 102.803 179.539 102.621 179.59 102.449C179.785 102.385 179.965 102.281 180.118 102.143C180.271 102.006 180.393 101.838 180.477 101.651C180.741 101.066 180.746 100.381 181.073 99.8367C181.456 99.1926 182.184 98.848 182.758 98.3627C184.205 97.1381 184.578 95.0745 184.51 93.1969C184.465 91.6776 184.219 90.1446 184.314 88.6343L184.342 88.2534C184.369 88.0266 184.401 87.7998 184.442 87.5821C184.665 86.4574 185.152 85.3961 185.425 84.2804C185.698 83.1647 185.725 81.9084 185.088 80.9469C184.155 79.5364 182.211 79.2552 180.504 79.1101C178.57 78.9468 176.84 79.16 175.602 77.559C175.023 76.7223 174.371 75.9377 173.654 75.2142C173.399 74.9784 170.923 73.4727 170.923 73.3729C168.506 72.2576 165.767 72.0483 163.207 72.7833C161.924 73.1552 160.713 73.7629 159.411 74.0668C156.603 74.729 153.371 74.0124 150.986 75.6134C149.656 76.5204 148.86 77.9627 148.113 79.3686C147.506 80.5267 146.89 81.6832 146.265 82.8382C145.259 84.7385 144.235 86.6705 143.812 88.7749C143.723 89.2329 143.668 89.6967 143.648 90.1628V90.1854C143.648 90.3532 143.648 90.5211 143.648 90.6889V90.902C143.648 91.0608 143.648 91.215 143.675 91.3556C143.703 91.4962 143.698 91.5415 143.712 91.6367C143.725 91.732 143.748 91.9451 143.775 92.0903C143.803 92.2354 143.857 92.4894 143.912 92.6889C143.935 92.7751 143.967 92.8568 143.994 92.9384C144.039 93.0926 144.094 93.2423 144.153 93.3919C144.185 93.469 144.217 93.5507 144.253 93.6278C144.322 93.7865 144.404 93.9407 144.486 94.0813C144.522 94.1448 144.549 94.2038 144.586 94.2627C144.713 94.4736 144.853 94.6766 145.004 94.8705C145.979 96.0814 147.412 96.8524 148.473 97.9862C148.473 98.0316 148.473 98.0769 148.473 98.1178C148.473 98.2448 148.473 98.3672 148.473 98.4942C148.529 101.023 149.205 103.5 150.441 105.709C151.677 107.918 153.436 109.793 155.565 111.171C155.565 111.343 155.588 111.52 155.597 111.692C155.685 113.038 155.669 114.389 155.547 115.733C155.361 115.516 155.129 115.342 154.868 115.226C154.606 115.11 154.322 115.054 154.035 115.062C153.84 115.052 153.644 115.069 153.453 115.112L153.412 115.08V115.121C152.41 115.366 151.177 116.404 149.998 119.357C149.998 119.357 146.411 123.384 143.68 123.216C140.949 123.049 134.034 127.407 134.034 127.407C134.034 127.407 127.289 131.77 125.841 136.215C125.032 138.735 124.062 141.201 122.937 143.598L114.598 160.719L113.059 174.303C113.059 174.303 113.911 180.344 113.742 181.264C113.574 182.185 117.243 190.489 117.243 190.489C117.243 190.489 129.364 211.71 134.317 212.799L134.672 212.549C134.884 212.659 135.108 212.743 135.341 212.799L136.36 212.082C136.422 212.881 136.396 213.684 136.283 214.477C135.6 216.572 136.538 230.246 137.731 232.927C138.923 235.607 138.5 270.751 138.5 270.751L138.331 273.854C138.331 273.854 138.331 273.953 138.372 274.126L138.331 274.86L138.454 274.924C138.582 275.908 138.54 276.906 138.331 277.876C137.904 279.237 137.731 283.083 137.731 283.083C137.731 283.083 134.321 304.798 135.937 309.161C137.553 313.524 138.928 318.305 138.928 318.305C138.928 318.305 140.635 323.747 139.01 324.677C137.385 325.606 132.764 327.167 133.716 329.434C134.581 331.53 137.863 337.144 138.35 337.965L138.309 338.396L137.639 345.621C137.748 346.575 138.008 347.506 138.409 348.378C139.142 349.952 140.566 351.585 143.275 351.408C143.73 351.376 144.258 351.322 144.768 351.254C149.725 350.592 155.829 348.387 155.829 348.387C155.512 348.187 155.221 347.948 154.964 347.675V347.675C154.72 347.44 154.527 347.158 154.397 346.846C154.266 346.534 154.2 346.199 154.204 345.861C154.277 344.546 151.805 338.278 151.19 336.736C151.095 336.514 151.045 336.387 151.045 336.387C151.045 336.387 156.68 330.518 155.742 325.316C155.742 325.316 149.506 321.688 151.559 319.697C153.612 317.706 157.281 311.987 157.281 311.987C157.281 311.987 157.449 290.603 157.281 287.41C157.105 285.194 157.211 282.964 157.595 280.774C157.663 280.443 157.745 280.121 157.832 279.804C160.671 280.226 163.537 280.443 166.407 280.452C167.454 280.452 168.519 280.452 169.594 280.389C169.594 280.691 169.607 281.018 169.635 281.369C169.871 286.666 170.313 295.954 170.672 299.406C171.182 304.354 174 317.688 174 317.688C174 317.688 168.624 321.125 174.938 329.598C174.938 329.598 174.938 332.668 174.519 333.112C174.072 334.565 173.711 336.043 173.44 337.539C173.176 339.135 173.067 340.75 173.495 341.589C174.519 343.594 180.664 343.43 180.664 343.43L180.814 343.403C181.974 343.284 183.146 343.395 184.263 343.73C185.38 344.066 186.418 344.619 187.319 345.358C189.654 347.226 198.516 346.406 203.314 345.811C205.194 345.576 206.45 345.358 206.45 345.358C206.511 345.146 206.533 344.925 206.514 344.705C206.464 343.53 205.54 340.954 199.276 338.655C199.276 338.655 193.386 334.709 193.468 331.271H193.345H192.663C193.159 331.244 193.477 331.271 193.477 331.271C193.477 331.271 191.17 322.881 192.112 322.2C193.054 321.52 190.232 312.223 190.232 312.223C190.232 312.223 188.616 296.621 188.529 295.528C188.533 294.59 188.676 293.658 188.953 292.761L188.529 284.208C188.529 284.208 188.448 281.364 188.529 280.439C188.516 279.636 188.45 278.834 188.334 278.04C188.293 277.722 188.252 277.391 188.206 277.065C190.414 276.507 191.848 275.99 191.848 275.99L191.593 246.215C193.468 242.587 193.814 234.627 193.805 228.981C193.805 225.352 193.641 222.668 193.641 222.668L196.204 218.5C196.204 218.5 196.796 213.511 195.858 212.418C195.444 211.923 195.63 211.411 195.972 210.989C196.149 210.849 196.336 210.722 196.532 210.608C196.532 210.608 196.504 210.567 196.472 210.508C196.651 210.359 196.842 210.224 197.041 210.105C197.041 210.105 196.131 208.699 196.946 208.105C197.711 208.622 198.393 209.012 198.912 209.329C198.876 209.66 198.839 209.851 198.839 209.851L199.058 209.397C199.559 209.678 199.864 209.851 199.864 209.851C199.864 209.851 203.878 201.882 203.792 200.707C203.705 199.533 206.523 194.585 206.523 194.585C206.523 194.585 206.864 191.986 208.403 190.897C209.941 189.809 209.596 181.922 209.596 181.922C209.596 181.922 210.023 177.813 211.048 176.135C212.072 174.457 210.114 172.194 210.114 172.194ZM133.297 168.697L133.374 170.597C132.919 169.867 132.591 169.341 132.591 169.341L133.297 168.697Z" fill="url(#paint0_linear_14_431)"/>
<path d="M200.082 206.408L199.099 210.581C199.099 210.581 191.224 206.576 189.804 201.487C188.384 196.399 192.18 194.467 192.18 194.467L199.518 197.564L200.082 206.408Z" fill="white"/>
<path opacity="0.1" d="M200.082 206.408L199.099 210.581C199.099 210.581 191.224 206.576 189.804 201.487C188.384 196.399 192.18 194.467 192.18 194.467L199.518 197.564L200.082 206.408Z" fill="black"/>
<path d="M155.888 348.415C155.888 348.415 148.605 351.082 143.598 351.417C140.94 351.594 139.542 349.97 138.823 348.406C138.43 347.536 138.177 346.61 138.072 345.662L138.723 338.473L139.069 334.645L149.706 331.892L151.213 336.482L151.354 336.831C151.96 338.364 154.386 344.6 154.313 345.902C154.31 346.235 154.375 346.566 154.503 346.874C154.631 347.182 154.82 347.46 155.06 347.694C155.304 347.968 155.582 348.21 155.888 348.415V348.415Z" fill="white"/>
<path d="M205.635 344.759C205.654 344.977 205.632 345.197 205.572 345.408C205.572 345.408 189.995 347.997 186.809 345.408C185.91 344.651 184.863 344.09 183.735 343.761C182.606 343.431 181.42 343.34 180.254 343.494C180.254 343.494 174.227 343.657 173.222 341.68C172.803 340.85 172.912 339.24 173.171 337.652C173.436 336.165 173.789 334.694 174.227 333.248L174.469 333.058L175.903 331.911L192.69 331.416H192.817C192.735 334.836 198.516 338.759 198.516 338.759C204.657 341.027 205.563 343.589 205.635 344.759Z" fill="white"/>
<path opacity="0.1" d="M205.635 344.759C205.651 344.978 205.628 345.197 205.567 345.408C205.567 345.408 189.995 347.997 186.809 345.408C185.911 344.652 184.865 344.091 183.737 343.761C182.609 343.432 181.424 343.341 180.259 343.494C180.259 343.494 174.227 343.657 173.226 341.68C172.807 340.845 172.912 339.24 173.171 337.652C175.493 337.884 179.157 338.46 180.595 339.834C182.771 341.925 186.458 344.011 188.721 344.174C190.491 344.287 201.083 344.623 205.635 344.759Z" fill="black"/>
<path opacity="0.1" d="M155.888 348.415C155.888 348.415 148.605 351.082 143.598 351.417C140.94 351.594 139.542 349.97 138.828 348.401C140.68 349.022 143.252 349.676 144.604 349.077C146.206 348.369 151.887 347.911 155.073 347.716C155.316 347.981 155.589 348.215 155.888 348.415V348.415Z" fill="black"/>
<path d="M166.694 133.507C160.686 131.18 152.956 123.493 154.886 119.901C155.315 118.995 155.57 118.016 155.638 117.017C155.762 115.659 155.78 114.295 155.692 112.935C155.557 110.707 155.288 108.49 154.886 106.295C154.886 106.295 173.645 106.717 172.552 109.47C172.234 110.277 172.184 111.678 172.27 113.248C172.357 114.817 172.584 116.59 172.821 118.091C173.149 120.15 173.476 121.72 173.476 121.72C173.476 121.72 172.329 123.321 171.656 123.407C170.982 123.493 175.315 136.822 166.694 133.507Z" fill="#CF6F80"/>
<path opacity="0.1" d="M151.341 336.831L151.199 336.986C145.592 330.228 138.809 338.65 138.809 338.65L138.709 338.473L139.055 334.645L149.693 331.892L151.199 336.482L151.341 336.831Z" fill="black"/>
<path opacity="0.1" d="M192.822 331.892C192.822 331.892 188.725 331.806 186.54 333.729C184.355 335.652 173.795 334.146 174.25 333.729C174.385 333.522 174.466 333.286 174.487 333.04L175.921 331.892L192.708 331.398C192.772 331.702 192.822 331.892 192.822 331.892Z" fill="black"/>
<path d="M158.319 278.824C158.014 279.576 157.782 280.355 157.627 281.151C157.247 283.33 157.142 285.549 157.313 287.754C157.481 290.929 157.313 312.204 157.313 312.204C157.313 312.204 153.712 317.878 151.705 319.878C149.697 321.878 155.801 325.47 155.801 325.47C156.712 330.641 151.195 336.482 151.195 336.482C145.587 329.724 138.805 338.151 138.805 338.151C138.805 338.151 135.118 331.802 134.198 329.534C133.279 327.266 137.799 325.697 139.387 324.776C140.976 323.856 139.31 318.427 139.31 318.427C139.31 318.427 137.967 313.669 136.374 309.329C134.781 304.989 138.131 283.382 138.131 283.382C138.131 283.382 138.304 279.545 138.718 278.207C138.927 277.242 138.969 276.248 138.841 275.269C138.814 274.937 138.782 274.661 138.759 274.475C138.737 274.289 138.718 274.203 138.718 274.203L138.782 274.094L141.058 269.867C141.058 269.867 159.411 276.162 158.319 278.824Z" fill="#F9A826"/>
<path d="M192.822 331.394C192.822 331.394 188.725 331.307 186.54 333.208C184.355 335.108 173.795 333.625 174.25 333.208C174.705 332.79 174.669 329.702 174.669 329.702C168.474 321.275 173.759 317.856 173.759 317.856C173.759 317.856 170.991 304.59 170.49 299.669C170.14 296.231 169.707 286.992 169.475 281.718C169.375 279.45 169.316 277.89 169.316 277.89L174.378 276.874L175.029 276.743L187.237 274.302C187.237 274.302 187.574 276.57 187.801 278.425C187.915 279.217 187.978 280.015 187.992 280.815C187.91 281.722 187.992 284.561 187.992 284.561L188.407 293.074C188.136 293.967 187.996 294.895 187.992 295.827C188.074 296.911 189.663 312.431 189.663 312.431C189.663 312.431 192.426 321.692 191.484 322.359C190.541 323.026 192.822 331.394 192.822 331.394Z" fill="#F9A826"/>
<path opacity="0.1" d="M172.552 109.47C172.234 110.277 172.184 111.678 172.27 113.248C169.758 114.755 166.869 115.526 163.937 115.471C161.004 115.417 158.147 114.539 155.692 112.939C155.557 110.71 155.288 108.492 154.887 106.295C154.887 106.295 173.645 106.708 172.552 109.47Z" fill="black"/>
<path d="M179.803 99.4466C179.807 101.081 179.549 102.705 179.039 104.259C177.898 107.739 175.56 110.705 172.437 112.634C169.313 114.562 165.606 115.329 161.971 114.797C158.335 114.266 155.005 112.471 152.57 109.73C150.134 106.989 148.749 103.479 148.66 99.8185C148.66 99.6915 148.66 99.5736 148.66 99.4466C148.624 97.3865 149.001 95.34 149.768 93.4264C150.535 91.5129 151.676 89.7706 153.126 88.3013C154.576 86.8319 156.304 85.6649 158.211 84.8683C160.119 84.0716 162.166 83.6614 164.234 83.6614C166.302 83.6614 168.349 84.0716 170.256 84.8683C172.163 85.6649 173.892 86.8319 175.342 88.3013C176.791 89.7706 177.933 91.5129 178.7 93.4264C179.467 95.34 179.843 97.3865 179.808 99.4466H179.803Z" fill="#CF6F80"/>
<path opacity="0.1" d="M166.694 133.507C160.686 131.18 152.956 123.493 154.886 119.901C155.315 118.995 155.57 118.016 155.638 117.017L163.863 123.752L168.952 127.91L172.821 118.096C173.149 120.155 173.476 121.724 173.476 121.724C173.476 121.724 172.329 123.325 171.656 123.411C170.982 123.498 175.315 136.822 166.694 133.507Z" fill="black"/>
<path d="M187.965 163.273L181.096 278.244L172.138 278.829L148.942 212.164L152.747 133.017L153.548 116.295L163.863 124.736L168.956 128.895L172.939 118.794L180.345 125.226L187.965 163.273Z" fill="#F9A826"/>
<path opacity="0.1" d="M158.319 278.824C158.014 279.576 157.782 280.355 157.627 281.151C151.108 280.148 144.778 278.178 138.846 275.305L138.723 275.241L138.764 274.511L138.787 274.13L141.063 269.903C141.063 269.903 159.411 276.162 158.319 278.824Z" fill="black"/>
<path opacity="0.1" d="M174.482 281.169C172.816 281.451 171.135 281.642 169.448 281.741C169.348 279.473 169.289 277.913 169.289 277.913L174.35 276.897L174.482 281.169Z" fill="black"/>
<path opacity="0.1" d="M187.774 278.448C184.537 279.287 179.539 280.23 175.065 279.641L175.001 276.765L187.209 274.325C187.209 274.325 187.546 276.57 187.774 278.448Z" fill="black"/>
<path opacity="0.1" d="M174.983 280.167C156.32 283.341 139.228 274.239 139.228 274.239L139.392 271.155C139.392 271.155 139.815 236.192 138.641 233.512C137.466 230.831 136.552 217.239 137.216 215.152C137.881 213.066 134.79 181.781 134.79 181.781L134.289 169.082L115.963 161.685L124.157 144.669C125.263 142.283 126.215 139.829 127.006 137.321C128.431 132.904 135.045 128.564 135.045 128.564C135.045 128.564 141.827 124.228 144.508 124.391C147.189 124.554 150.703 120.554 150.703 120.554C153.298 113.964 155.647 116.949 155.647 116.949C155.647 117.261 155.647 116.949 155.519 117.924C154.609 125.158 170.24 148.016 170.463 148.419L171.951 184.548L173.458 230.269L174.983 280.167Z" fill="black"/>
<path d="M174.482 280.167C155.82 283.341 138.723 274.239 138.723 274.239L138.891 271.155C138.891 271.155 139.315 236.192 138.136 233.512C136.957 230.831 136.046 217.239 136.715 215.152C137.385 213.066 134.289 181.781 134.289 181.781L133.784 169.082L115.449 161.658L123.642 144.641C124.747 142.255 125.698 139.801 126.492 137.294C127.912 132.877 134.531 128.536 134.531 128.536C134.531 128.536 141.313 124.201 143.989 124.364C146.666 124.527 150.184 120.527 150.184 120.527C152.784 113.937 155.647 116.921 155.647 116.921C155.647 117.234 155.374 117.375 155.519 117.896C157.522 124.913 169.739 147.988 169.962 148.392L171.469 184.521L172.976 230.242L174.482 280.167Z" fill="white"/>
<path opacity="0.1" d="M169.453 149.422C167.445 148.587 156.812 136.491 156.812 136.491V133.738C156.425 132.831 154.126 133.385 152.26 134.02L153.061 117.298L153.972 118.051C155.965 125.062 169.22 149.018 169.453 149.422Z" fill="black"/>
<path d="M169.958 148.419C167.946 147.585 157.313 135.489 157.313 135.489V132.736C156.926 131.829 154.627 132.382 152.761 133.017L153.566 116.295L154.477 117.048C156.475 124.06 169.735 148.02 169.958 148.419Z" fill="white"/>
<path opacity="0.1" d="M139.228 208.744C139.478 208.744 152.205 207.411 152.205 207.411C152.205 207.411 159.912 222.509 159.407 226.182C158.901 229.856 157.986 233.108 154.887 232.532C151.787 231.956 138.204 232.985 138.204 232.985L139.228 208.744Z" fill="black"/>
<path d="M138.723 207.742C138.973 207.742 151.7 206.408 151.7 206.408C151.7 206.408 159.402 221.511 158.901 225.18C158.401 228.849 157.477 232.106 154.381 231.53C151.286 230.954 137.699 231.983 137.699 231.983L138.723 207.742Z" fill="white"/>
<path d="M148.314 200.653C148.314 200.653 159.994 206.907 160.244 208.817C160.494 210.726 154.299 207.982 152.961 207.651C152.08 207.44 151.184 207.3 150.28 207.234L141.354 207.474L148.314 200.653Z" fill="#CF6F80"/>
<path opacity="0.1" d="M166.193 150.202C166.872 150.202 167.422 149.653 167.422 148.977C167.422 148.301 166.872 147.753 166.193 147.753C165.515 147.753 164.964 148.301 164.964 148.977C164.964 149.653 165.515 150.202 166.193 150.202Z" fill="black"/>
<path d="M166.193 149.703C166.872 149.703 167.422 149.155 167.422 148.478C167.422 147.802 166.872 147.254 166.193 147.254C165.515 147.254 164.964 147.802 164.964 148.478C164.964 149.155 165.515 149.703 166.193 149.703Z" fill="#3F3D56"/>
<path opacity="0.1" d="M168.456 203.211C169.134 203.211 169.685 202.663 169.685 201.986C169.685 201.31 169.134 200.762 168.456 200.762C167.777 200.762 167.227 201.31 167.227 201.986C167.227 202.663 167.777 203.211 168.456 203.211Z" fill="black"/>
<path d="M168.456 202.707C169.134 202.707 169.685 202.159 169.685 201.483C169.685 200.807 169.134 200.258 168.456 200.258C167.777 200.258 167.227 200.807 167.227 201.483C167.227 202.159 167.777 202.707 168.456 202.707Z" fill="#3F3D56"/>
<path opacity="0.1" d="M167.418 176.706C168.097 176.706 168.647 176.158 168.647 175.482C168.647 174.805 168.097 174.257 167.418 174.257C166.739 174.257 166.189 174.805 166.189 175.482C166.189 176.158 166.739 176.706 167.418 176.706Z" fill="black"/>
<path d="M167.418 176.207C168.097 176.207 168.647 175.659 168.647 174.983C168.647 174.307 168.097 173.758 167.418 173.758C166.739 173.758 166.189 174.307 166.189 174.983C166.189 175.659 166.739 176.207 167.418 176.207Z" fill="#3F3D56"/>
<path d="M195.749 206.98C195.749 206.98 196.586 208.232 195.749 208.817C194.911 209.402 195.831 210.817 195.831 210.817C195.831 210.817 193.741 212.037 194.661 213.134C195.58 214.232 194.998 219.189 194.998 219.189L192.485 223.334C192.485 223.334 192.635 226.006 192.644 229.616C192.644 235.249 192.312 243.167 190.473 246.777L190.728 276.398C190.728 276.398 181.929 279.6 174.564 278.625L173.472 231.094C173.472 231.094 175.065 204.141 175.652 198.97C175.996 196.286 176.136 193.58 176.071 190.875C176.071 190.875 175.821 182.784 174.978 179.028C174.978 179.028 174.068 162.76 173.977 158.257C173.936 156.102 174.05 149.816 174.177 143.839C174.318 137.303 174.478 131.14 174.478 131.14L172.816 118.042C172.816 118.042 174.478 117.874 174.978 118.54C175.203 118.749 175.447 118.936 175.707 119.098V119.098C178.574 121.03 188.707 126.972 188.707 126.972C188.707 126.972 194.315 129.194 195.658 132.378C197 135.562 197.934 137.82 198.585 138.727C199.235 139.634 199.59 143.898 199.59 143.898C199.59 143.898 201.52 151.744 203.027 153.073C204.534 154.401 205.635 162.855 205.635 162.855L192.321 173.287C192.321 173.287 191.151 190.639 190.901 191.31C190.651 191.981 195.749 206.98 195.749 206.98Z" fill="white"/>
<path d="M196.254 206.98C196.254 206.98 197.087 208.232 196.254 208.817C195.421 209.402 196.331 210.817 196.331 210.817C196.331 210.817 194.256 212.05 195.166 213.148C196.076 214.245 195.503 219.203 195.503 219.203L192.99 223.348C192.99 223.348 193.14 226.019 193.154 229.629C193.154 235.262 192.822 243.181 190.983 246.791L191.233 276.411C191.233 276.411 182.421 279.613 175.065 278.638L173.977 231.108C173.977 231.108 175.57 204.154 176.157 198.984C176.501 196.3 176.64 193.593 176.572 190.888C176.572 190.888 176.321 182.797 175.484 179.042C175.484 179.042 174.573 162.774 174.478 158.27C174.437 156.116 174.555 149.83 174.678 143.852C174.819 137.317 174.978 131.153 174.978 131.153L172.784 117.878C172.784 117.878 174.978 117.878 175.484 118.554C175.706 118.765 175.95 118.952 176.212 119.112C179.08 121.044 189.217 126.985 189.217 126.985C189.217 126.985 194.82 129.208 196.163 132.391C197.506 135.575 198.439 137.834 199.094 138.741C199.75 139.648 200.096 143.911 200.096 143.911C200.096 143.911 202.026 151.757 203.532 153.086C205.039 154.415 206.127 162.851 206.127 162.851L192.813 173.282C192.813 173.282 191.643 190.634 191.388 191.306C191.133 191.977 196.254 206.98 196.254 206.98Z" fill="white"/>
<path opacity="0.1" d="M180.309 135.004L181.51 138.496L175.183 144.845C175.324 138.315 175.484 132.146 175.484 132.146L173.29 118.872C173.29 118.872 175.484 118.872 175.989 119.547C176.211 119.758 176.455 119.944 176.717 120.101L182.098 135.566L180.309 135.004Z" fill="black"/>
<path d="M179.803 134.001L181.01 137.494L174.683 143.843C174.824 137.308 174.983 131.144 174.983 131.144L172.784 117.869C172.784 117.869 174.983 117.869 175.484 118.545C175.707 118.755 175.951 118.942 176.212 119.103L181.597 134.564L179.803 134.001Z" fill="white"/>
<path opacity="0.1" d="M179.803 99.4466C179.807 101.081 179.549 102.705 179.039 104.259C178.953 104.272 178.865 104.268 178.781 104.247C178.696 104.226 178.617 104.188 178.547 104.136C178.429 100.054 176.412 96.222 173.932 92.9611C173.235 91.9765 172.391 91.1046 171.428 90.3759C170.455 89.6476 169.244 89.3065 168.032 89.419C166.667 89.6049 165.461 90.5301 164.081 90.6481C162.261 90.7977 160.631 89.5414 158.824 89.4779C158.089 89.4849 157.365 89.6479 156.698 89.956C156.032 90.2642 155.439 90.7103 154.959 91.2649C154.01 92.3839 153.305 93.6874 152.888 95.0927C152.173 97.2236 151.783 99.4497 151.732 101.696C151.709 102.966 151.586 104.558 150.403 105.021C150.492 104.087 150.386 103.144 150.09 102.254C149.795 101.363 149.317 100.543 148.687 99.8457L148.66 99.8185C148.66 99.6915 148.66 99.5736 148.66 99.4466C148.624 97.3865 149.001 95.34 149.768 93.4264C150.535 91.5129 151.676 89.7706 153.126 88.3013C154.576 86.8319 156.304 85.6649 158.211 84.8683C160.119 84.0716 162.166 83.6614 164.234 83.6614C166.302 83.6614 168.349 84.0716 170.256 84.8683C172.163 85.6649 173.892 86.8319 175.342 88.3013C176.791 89.7706 177.933 91.5129 178.7 93.4264C179.467 95.34 179.843 97.3865 179.808 99.4466H179.803Z" fill="black"/>
<path d="M170.682 74.8061C168.316 73.6975 165.626 73.4878 163.116 74.2165C161.855 74.5884 160.667 75.1916 159.388 75.4954C156.657 76.1531 153.471 75.441 151.127 77.0329C149.825 77.94 149.042 79.3732 148.314 80.7655L146.493 84.2214C145.501 86.1127 144.499 88.0357 144.085 90.1174C143.671 92.1991 143.921 94.5303 145.246 96.2038C146.211 97.4238 147.635 98.1903 148.682 99.3378C149.31 100.036 149.785 100.855 150.08 101.745C150.374 102.635 150.481 103.575 150.394 104.508C151.582 104.055 151.696 102.458 151.723 101.188C151.774 98.9417 152.163 96.7156 152.879 94.5847C153.295 93.179 154 91.8753 154.95 90.7569C155.43 90.2028 156.023 89.7569 156.689 89.4488C157.356 89.1407 158.08 88.9775 158.815 88.97C160.636 89.0334 162.27 90.2852 164.072 90.1355C165.438 90.0222 166.649 89.0924 168.023 88.911C169.235 88.7967 170.447 89.138 171.419 89.868C172.381 90.5955 173.224 91.4676 173.918 92.4531C176.403 95.714 178.42 99.5373 178.538 103.628C179.052 104.005 179.794 103.515 180.049 102.934C180.304 102.354 180.313 101.673 180.636 101.12C181.01 100.481 181.724 100.141 182.284 99.6598C183.704 98.4398 184.06 96.3853 184.005 94.5212C183.95 92.6572 183.586 90.766 183.941 88.9337C184.155 87.8089 184.638 86.7567 184.902 85.6455C185.166 84.5344 185.197 83.2872 184.574 82.3302C183.663 80.9242 181.747 80.6476 180.077 80.5161C178.178 80.3528 176.481 80.5614 175.27 78.9695C174.701 78.1388 174.062 77.3588 173.358 76.6383C173.117 76.4025 170.682 74.9058 170.682 74.8061Z" fill="#512E4E"/>
<path opacity="0.1" d="M121.207 170.448L116.451 161.685L114.944 175.205C114.944 175.205 115.781 181.21 115.613 182.131C115.445 183.051 119.045 191.306 119.045 191.306C119.045 191.306 130.939 212.413 135.796 213.502L152.205 201.819L147.854 196.313C147.854 196.313 146.347 195.728 145.969 196.313C145.969 196.313 137.89 182.462 137.052 181.459C136.215 180.457 136.379 178.457 136.379 178.457C136.379 178.457 135.122 177.124 135.541 175.872C135.96 174.62 133.115 170.28 133.115 170.28L135.709 167.862L121.207 170.448Z" fill="black"/>
<path d="M116.701 160.687L115.445 161.685L113.938 175.205C113.938 175.205 114.775 181.21 114.607 182.131C114.439 183.051 118.044 191.306 118.044 191.306C118.044 191.306 129.933 212.413 134.79 213.502L151.204 201.819L146.848 196.313C146.848 196.313 145.341 195.728 144.963 196.313C144.963 196.313 136.884 182.462 136.046 181.459C135.209 180.457 135.377 178.457 135.377 178.457C135.377 178.457 134.121 177.124 134.54 175.872C134.958 174.62 132.109 170.28 132.109 170.28L134.704 167.862L116.701 160.687Z" fill="white"/>
<path opacity="0.1" d="M194.661 213.651C195.571 214.753 194.998 219.701 194.998 219.701L192.485 223.847C192.485 223.847 192.635 226.523 192.644 230.128L188.42 231.443C188.038 231.562 187.634 231.588 187.24 231.52C186.846 231.451 186.474 231.289 186.156 231.048C185.837 230.807 185.581 230.494 185.409 230.134C185.237 229.775 185.153 229.379 185.166 228.981L185.894 205.574L195.749 209.329C194.911 209.91 195.831 211.334 195.831 211.334C195.831 211.334 193.741 212.549 194.661 213.651Z" fill="black"/>
<path d="M195.166 213.148C196.076 214.25 195.503 219.203 195.503 219.203L192.99 223.348C192.99 223.348 193.14 226.019 193.154 229.629L188.853 230.967C188.479 231.083 188.083 231.108 187.697 231.04C187.311 230.973 186.948 230.814 186.636 230.578C186.324 230.342 186.074 230.036 185.905 229.683C185.736 229.331 185.654 228.944 185.666 228.554L186.399 205.075L196.259 208.83C195.416 209.411 196.336 210.83 196.336 210.83C196.336 210.83 194.256 212.05 195.166 213.148Z" fill="white"/>
<path d="M198.43 201.991C198.43 201.991 197.761 206.25 196.086 206.499C194.41 206.748 193.659 213.388 191.989 213.152C190.318 212.917 191.424 206.98 191.484 205.828C191.543 204.676 189.663 199.905 191.069 198.821C192.476 197.737 196.928 198.821 196.928 198.821L198.43 201.991Z" fill="#CF6F80"/>
<path opacity="0.1" d="M201.994 169.196L205.153 162.846C205.153 162.846 206.409 167.685 206.409 170.271C206.409 172.856 208.166 173.11 208.166 173.11C208.166 173.11 210.092 175.377 209.077 177.028C208.061 178.679 207.652 182.788 207.652 182.788C207.652 182.788 207.984 190.63 206.477 191.714C204.971 192.798 204.657 195.387 204.657 195.387C204.657 195.387 201.889 200.308 201.976 201.478C202.062 202.649 198.125 210.572 198.125 210.572C198.125 210.572 200.05 200.726 188.83 196.471C188.83 196.471 188.743 193.129 189.581 192.213C190.418 191.297 191.725 190.879 190.905 186.249C190.086 181.618 190.669 176.085 190.669 174.974C190.669 173.863 193.181 166.933 193.181 166.933L201.994 169.196Z" fill="black"/>
<path d="M203.359 161.939L206.118 162.846C206.118 162.846 207.379 167.685 207.379 170.271C207.379 172.856 209.136 173.11 209.136 173.11C209.136 173.11 211.061 175.377 210.046 177.028C209.031 178.679 208.626 182.788 208.626 182.788C208.626 182.788 208.958 190.63 207.452 191.714C205.945 192.798 205.608 195.387 205.608 195.387C205.608 195.387 202.845 200.308 202.932 201.478C203.018 202.649 199.076 210.572 199.076 210.572C199.076 210.572 201.006 200.726 189.781 196.471C189.781 196.471 189.699 193.129 190.537 192.213C191.374 191.297 192.681 190.879 191.861 186.249C191.042 181.618 191.625 176.085 191.625 174.974C191.625 173.863 194.137 166.933 194.137 166.933L203.359 161.939Z" fill="white"/>
<path opacity="0.1" d="M142.433 326.513C142.433 326.513 146.83 323.761 149.716 325.761C152.602 327.761 142.433 326.513 142.433 326.513Z" fill="black"/>
<path opacity="0.1" d="M176.599 318.001C176.599 318.001 180.491 317.502 183.759 321.008C187.027 324.513 176.599 318.001 176.599 318.001Z" fill="black"/>
<g opacity="0.1">
<path opacity="0.1" d="M182.293 98.6665C181.733 99.1473 181.014 99.492 180.641 100.131C180.322 100.68 180.313 101.356 180.058 101.946C179.803 102.535 179.061 103.016 178.547 102.644C178.429 98.5622 176.408 94.7299 173.927 91.4644C173.233 90.4789 172.39 89.6068 171.428 88.8793C170.454 88.1495 169.241 87.8082 168.028 87.9223C166.662 88.1083 165.461 89.0335 164.081 89.1469C162.261 89.3011 160.626 88.0448 158.819 87.9813C158.085 87.9885 157.361 88.1522 156.695 88.4611C156.029 88.7701 155.437 89.2173 154.959 89.7727C154.009 90.8894 153.304 92.1917 152.888 93.596C152.173 95.727 151.783 97.9531 151.732 100.199C151.705 101.465 151.586 103.043 150.412 103.515C150.439 103.85 150.439 104.187 150.412 104.522C151.596 104.068 151.714 102.472 151.741 101.202C151.792 98.9553 152.182 96.7292 152.897 94.5983C153.313 93.1927 154.018 91.8889 154.968 90.7705C155.448 90.2166 156.04 89.7707 156.705 89.4626C157.371 89.1545 158.095 88.9912 158.828 88.9836C160.649 89.0471 162.288 90.2988 164.09 90.1492C165.456 90.0358 166.667 89.106 168.037 88.9246C169.25 88.8105 170.463 89.1518 171.437 89.8816C172.399 90.6091 173.243 91.4813 173.936 92.4667C176.417 95.7276 178.438 99.5509 178.556 103.642C179.071 104.018 179.813 103.528 180.067 102.948C180.322 102.367 180.331 101.687 180.65 101.134C181.023 100.494 181.743 100.154 182.302 99.6734C183.723 98.4534 184.078 96.3989 184.023 94.5348C184.023 94.4759 184.023 94.4169 184.023 94.3625C183.937 95.9771 183.504 97.6234 182.293 98.6665Z" fill="black"/>
<path opacity="0.1" d="M148.691 98.3445C147.644 97.1971 146.215 96.4306 145.255 95.2151C144.446 94.1391 143.984 92.8439 143.93 91.5007C143.787 93.1792 144.257 94.8527 145.255 96.2129C146.215 97.4329 147.644 98.1994 148.691 99.3468C149.697 100.469 150.3 101.892 150.407 103.392C150.477 102.479 150.361 101.561 150.066 100.694C149.771 99.8267 149.304 99.0275 148.691 98.3445V98.3445Z" fill="black"/>
<path opacity="0.1" d="M184.911 84.6523C184.642 85.7635 184.164 86.8202 183.946 87.9404C183.816 88.689 183.769 89.4494 183.805 90.2081C183.82 89.7759 183.867 89.3454 183.946 88.9201C184.164 87.7953 184.642 86.7431 184.911 85.632C185.067 85.0191 185.118 84.3842 185.061 83.7543C185.033 84.0569 184.982 84.357 184.911 84.6523V84.6523Z" fill="black"/>
</g>
<path opacity="0.1" d="M60.417 344.954C84.9127 344.954 104.77 341.776 104.77 337.856C104.77 333.936 84.9127 330.759 60.417 330.759C35.9212 330.759 16.0635 333.936 16.0635 337.856C16.0635 341.776 35.9212 344.954 60.417 344.954Z" fill="#F9A826"/>
<path d="M61.8463 201.887H58.9922V265.912H61.8463V201.887Z" fill="#535461"/>
<path d="M79.7807 265.717L79.6031 268.602L79.3482 272.683L79.2435 274.38L78.9932 278.461L78.8839 280.158L78.629 284.239L75.7523 330.532C75.6272 332.523 74.7452 334.393 73.2856 335.76C71.826 337.126 69.8986 337.887 67.8957 337.888H52.9383C50.9358 337.887 49.009 337.126 47.5502 335.759C46.0913 334.392 45.2102 332.523 45.0863 330.532L42.2232 284.208L41.9683 280.126L41.8636 278.43L41.6087 274.348L41.504 272.652L41.2491 268.57L41.067 265.685C41.0354 265.13 41.1179 264.574 41.3096 264.052C41.5013 263.53 41.798 263.052 42.1816 262.648C42.5652 262.244 43.0276 261.923 43.5404 261.704C44.0532 261.484 44.6056 261.371 45.1637 261.372H75.7568C76.3128 261.377 76.8619 261.495 77.3702 261.72C77.8786 261.944 78.3354 262.27 78.7124 262.677C79.0895 263.084 79.3788 263.564 79.5625 264.087C79.7462 264.61 79.8205 265.165 79.7807 265.717V265.717Z" fill="#3F3D56"/>
<path d="M79.6031 268.602L79.3482 272.67H41.4857L41.2308 268.602H79.6031Z" fill="#9D9CB5"/>
<path d="M79.2435 274.366L78.9932 278.439H41.8454L41.5905 274.366H79.2435Z" fill="#9D9CB5"/>
<path d="M78.8839 280.139L78.6336 284.208H42.205L41.9501 280.139H78.8839Z" fill="#9D9CB5"/>
<path d="M36.8747 225.883C53.4936 237.866 60.4306 256.606 60.4306 256.606C60.4306 256.606 40.4024 255.921 23.7789 243.938C7.15551 231.956 0.232117 213.22 0.232117 213.22C0.232117 213.22 20.2512 213.901 36.8747 225.883Z" fill="#F9A826"/>
<path d="M0.218506 213.22C0.218506 213.22 21.0115 224.718 27.68 234.237C34.3484 243.757 60.4307 256.606 60.4307 256.606" stroke="#535461" stroke-width="2" stroke-miterlimit="10"/>
<path d="M47.6035 201.746C56.648 208.263 60.4306 218.463 60.4306 218.463C60.4306 218.463 49.5289 218.091 40.4798 211.574C31.4307 205.057 27.6572 194.852 27.6572 194.852C27.6572 194.852 38.5543 195.224 47.6035 201.746Z" fill="#F9A826"/>
<path d="M27.6572 194.852C27.6572 194.852 38.9731 201.111 42.601 206.29C46.2288 211.47 60.4306 218.463 60.4306 218.463" stroke="#535461" stroke-width="2" stroke-miterlimit="10"/>
<path d="M73.5628 217.946C63.1708 229.325 60.9723 244.197 60.9723 244.197C60.9723 244.197 75.6248 240.614 86.0076 229.23C96.3904 217.846 98.5981 202.98 98.5981 202.98C98.5981 202.98 83.9547 206.567 73.5628 217.946Z" fill="#F9A826"/>
<path d="M98.6072 202.984C98.6072 202.984 85.0699 214.649 81.6287 222.686C78.1875 230.722 60.9723 244.197 60.9723 244.197" stroke="#535461" stroke-width="2" stroke-miterlimit="10"/>
</g>
<defs>
<linearGradient id="paint0_linear_14_431" x1="162.197" y1="351.431" x2="162.197" y2="72.3524" gradientUnits="userSpaceOnUse">
<stop stop-color="#808080" stop-opacity="0.25"/>
<stop offset="0.54" stop-color="#808080" stop-opacity="0.12"/>
<stop offset="1" stop-color="#808080" stop-opacity="0.1"/>
</linearGradient>
<clipPath id="clip0_14_431">
<rect width="503" height="355" fill="white"/>
</clipPath>
</defs>
</svg>
