<svg width="248" height="272" viewBox="0 0 248 272" fill="none" xmlns="http://www.w3.org/2000/svg">
<g clip-path="url(#clip0_14_533)">
<path d="M248 244.932C248 253.188 192.483 272 124 272C55.5167 272 0 253.188 0 244.932C0 236.677 55.5167 242.104 124 242.104C192.483 242.104 248 236.677 248 244.932Z" fill="#3F3D56"/>
<path opacity="0.1" d="M248 244.932C248 253.188 192.483 272 124 272C55.5167 272 0 253.188 0 244.932C0 236.677 55.5167 242.104 124 242.104C192.483 242.104 248 236.677 248 244.932Z" fill="black"/>
<path d="M35.3139 135.045C38.1951 135.045 40.5307 132.694 40.5307 129.793C40.5307 126.893 38.1951 124.541 35.3139 124.541C32.4327 124.541 30.097 126.893 30.097 129.793C30.097 132.694 32.4327 135.045 35.3139 135.045Z" fill="#F9A826"/>
<path d="M58.1877 178.273C61.0688 178.273 63.4045 175.921 63.4045 173.021C63.4045 170.12 61.0688 167.769 58.1877 167.769C55.3065 167.769 52.9708 170.12 52.9708 173.021C52.9708 175.921 55.3065 178.273 58.1877 178.273Z" fill="#F9A826"/>
<path d="M40.5308 167.365C43.412 167.365 45.7476 165.014 45.7476 162.113C45.7476 159.212 43.412 156.861 40.5308 156.861C37.6496 156.861 35.314 159.212 35.314 162.113C35.314 165.014 37.6496 167.365 40.5308 167.365Z" fill="#F9A826"/>
<path d="M42.1947 236.659C42.1026 236.507 39.9311 232.857 39.1783 225.278C38.4878 218.324 38.9318 206.602 44.97 190.252C56.4093 159.277 42.3338 134.285 42.19 134.036L42.8844 133.63C42.9208 133.694 46.5529 140.066 48.6985 150.212C51.5335 163.664 50.5011 177.651 45.7225 190.534C34.3028 221.455 42.7927 236.094 42.8797 236.238L42.1947 236.659Z" fill="#CFCCE0"/>
<path d="M37.7216 132.621C36.6105 132.621 35.5243 132.29 34.6004 131.668C33.6765 131.047 32.9564 130.163 32.5312 129.13C32.1059 128.096 31.9947 126.959 32.2115 125.862C32.4282 124.765 32.9633 123.757 33.749 122.966C34.5347 122.175 35.5358 121.636 36.6256 121.418C37.7154 121.2 38.845 121.312 39.8716 121.74C40.8982 122.168 41.7756 122.893 42.3929 123.823C43.0103 124.753 43.3398 125.847 43.3398 126.965C43.3381 128.465 42.7456 129.902 41.6924 130.963C40.6392 132.023 39.2111 132.62 37.7216 132.621ZM37.7216 122.117C36.7692 122.117 35.8382 122.402 35.0463 122.934C34.2544 123.467 33.6371 124.224 33.2727 125.11C32.9082 125.996 32.8128 126.971 32.9986 127.911C33.1844 128.851 33.6431 129.715 34.3166 130.393C34.99 131.071 35.8481 131.533 36.7822 131.72C37.7163 131.907 38.6845 131.811 39.5645 131.444C40.4444 131.077 41.1965 130.456 41.7256 129.659C42.2547 128.861 42.5372 127.924 42.5372 126.965C42.5357 125.68 42.0279 124.448 41.1251 123.539C40.2224 122.63 38.9984 122.119 37.7216 122.117Z" fill="#CFCCE0"/>
<path d="M54.1747 151.609C57.0559 151.609 59.3916 149.258 59.3916 146.357C59.3916 143.457 57.0559 141.105 54.1747 141.105C51.2935 141.105 48.9579 143.457 48.9579 146.357C48.9579 149.258 51.2935 151.609 54.1747 151.609Z" fill="#CFCCE0"/>
<path d="M42.9385 164.941C41.8274 164.941 40.7412 164.609 39.8173 163.988C38.8934 163.366 38.1733 162.483 37.7481 161.449C37.3229 160.416 37.2116 159.279 37.4284 158.182C37.6452 157.084 38.1802 156.077 38.9659 155.286C39.7517 154.495 40.7527 153.956 41.8425 153.738C42.9323 153.519 44.0619 153.631 45.0885 154.06C46.1151 154.488 46.9925 155.213 47.6099 156.143C48.2272 157.073 48.5567 158.166 48.5567 159.285C48.555 160.785 47.9626 162.222 46.9093 163.283C45.8561 164.343 44.428 164.939 42.9385 164.941ZM42.9385 154.437C41.9861 154.437 41.0551 154.721 40.2632 155.254C39.4713 155.787 38.854 156.544 38.4896 157.43C38.1251 158.316 38.0297 159.29 38.2155 160.231C38.4013 161.171 38.86 162.035 39.5335 162.713C40.2069 163.391 41.065 163.853 41.9991 164.04C42.9332 164.227 43.9014 164.131 44.7814 163.764C45.6613 163.397 46.4134 162.776 46.9425 161.978C47.4716 161.181 47.7541 160.244 47.7541 159.285C47.7527 158 47.2448 156.767 46.3421 155.859C45.4393 154.95 44.2153 154.438 42.9385 154.437V154.437Z" fill="#CFCCE0"/>
<path d="M56.5825 175.849C55.4713 175.849 54.3851 175.517 53.4612 174.896C52.5373 174.274 51.8172 173.391 51.392 172.357C50.9668 171.324 50.8555 170.187 51.0723 169.089C51.2891 167.992 51.8242 166.985 52.6099 166.194C53.3956 165.403 54.3966 164.864 55.4864 164.646C56.5763 164.427 57.7059 164.539 58.7325 164.968C59.759 165.396 60.6365 166.121 61.2538 167.051C61.8711 167.981 62.2006 169.074 62.2006 170.193C62.1989 171.692 61.6065 173.13 60.5533 174.19C59.5 175.251 58.072 175.847 56.5825 175.849ZM56.5825 165.345C55.6301 165.345 54.699 165.629 53.9071 166.162C53.1152 166.695 52.498 167.452 52.1335 168.338C51.769 169.224 51.6737 170.198 51.8595 171.139C52.0453 172.079 52.5039 172.943 53.1774 173.621C53.8508 174.299 54.7089 174.761 55.643 174.948C56.5771 175.135 57.5454 175.039 58.4253 174.672C59.3052 174.305 60.0573 173.684 60.5865 172.886C61.1156 172.089 61.398 171.152 61.398 170.193C61.3966 168.908 60.8888 167.675 59.986 166.766C59.0832 165.858 57.8592 165.346 56.5825 165.345Z" fill="#CFCCE0"/>
<path d="M38.9256 192.413C41.8067 192.413 44.1424 190.061 44.1424 187.161C44.1424 184.26 41.8067 181.909 38.9256 181.909C36.0444 181.909 33.7087 184.26 33.7087 187.161C33.7087 190.061 36.0444 192.413 38.9256 192.413Z" fill="#CFCCE0"/>
<path d="M45.3463 236.852C45.3463 236.852 40.1295 223.924 55.7799 214.229L45.3463 236.852Z" fill="#CFCCE0"/>
<path d="M38.9304 236.618C38.9304 236.618 36.5562 222.87 18.1801 222.988L38.9304 236.618Z" fill="#CFCCE0"/>
<path d="M227.268 241.7H138.472C138.472 241.7 136.672 215.124 147.322 214.822C157.971 214.52 156.771 226.6 170.121 209.99C183.47 193.379 199.669 194.285 201.769 204.1C203.869 213.916 197.719 221.768 208.969 219.352C220.218 216.936 236.418 223.278 227.268 241.7Z" fill="#F9A826"/>
<path d="M181.371 241.706L181.072 241.694C181.77 224.196 185.411 212.954 188.341 206.604C191.523 199.709 194.589 196.918 194.62 196.89L194.819 197.116C194.789 197.143 191.759 199.907 188.602 206.755C185.688 213.078 182.068 224.274 181.371 241.706Z" fill="#F2F2F2"/>
<path d="M213.509 241.742L213.221 241.658C216.689 229.675 224.855 222.11 224.937 222.035L225.138 222.258C225.057 222.333 216.952 229.845 213.509 241.742Z" fill="#F2F2F2"/>
<path d="M152.458 241.721L152.161 241.679C153.337 233.137 151.212 226.51 149.222 222.454C147.067 218.063 144.609 215.664 144.584 215.641L144.792 215.423C144.817 215.447 147.313 217.882 149.491 222.32C151.5 226.414 153.645 233.103 152.458 241.721Z" fill="#F2F2F2"/>
<path d="M239.319 242.104H128.895L128.869 241.728C128.806 240.791 127.397 218.694 134.509 210.809C136.099 209.047 138.014 208.121 140.201 208.059C144.837 207.927 147.75 209.675 150.1 211.078C154.529 213.723 157.455 215.471 168.093 202.234C179.617 187.894 192.051 184.809 199.2 186.525C203.818 187.633 207.001 190.766 207.933 195.121C208.815 199.244 208.534 203.118 208.308 206.231C208.067 209.562 207.876 212.193 209.235 213.385C210.369 214.38 212.633 214.471 216.36 213.67C223.939 212.042 234.515 213.435 239.824 220.34C242.68 224.055 244.93 230.808 239.43 241.881L239.319 242.104ZM129.648 241.296H238.822C242.921 232.926 243.049 225.854 239.189 220.834C234.319 214.5 224.103 212.833 216.527 214.46C212.478 215.33 210.066 215.186 208.707 213.994C207.046 212.537 207.25 209.728 207.508 206.172C207.73 203.111 208.006 199.301 207.148 195.291C206.284 191.253 203.319 188.344 199.013 187.311C192.093 185.649 180.007 188.695 168.717 202.742C157.643 216.521 154.307 214.53 149.691 211.773C147.312 210.353 144.611 208.742 140.224 208.867C138.263 208.923 136.541 209.759 135.103 211.352C128.711 218.438 129.492 238.309 129.648 241.296Z" fill="#CFCCE0"/>
<path d="M124 259.88C192.483 259.88 248 253.188 248 244.932C248 236.677 192.483 229.984 124 229.984C55.5167 229.984 0 236.677 0 244.932C0 253.188 55.5167 259.88 124 259.88Z" fill="#3F3D56"/>
<path d="M126.727 49.388C126.727 49.388 120.527 47.1591 116.542 56.0747C112.557 64.9903 106.358 74.7974 106.358 74.7974L109.9 75.689C109.9 75.689 110.786 69.4481 113 68.5565L112.114 76.5806C112.114 76.5806 138.682 85.9419 150.638 75.689L150.195 72.5685C150.195 72.5685 151.966 73.0143 151.966 75.689L153.295 74.3517C153.295 74.3517 151.966 71.677 147.981 68.1107C145.365 65.77 144.466 61.3168 144.158 58.5326C143.926 56.2078 143.002 54.0076 141.507 52.2207C138.859 49.1307 134.033 45.8465 126.727 49.388Z" fill="#2F2E41"/>
<path d="M120.188 84.3437L113.767 76.2637L108.951 59.6999L127.411 39.904C127.411 39.904 131.424 24.5522 127.812 25.3602C124.201 26.1682 123.398 37.4801 123.398 37.4801L100.123 55.6599C100.123 55.6599 102.531 81.1117 109.353 89.9996L114.57 106.563L120.188 84.3437Z" fill="#FFB9B9"/>
<path d="M137.845 84.3437L144.265 76.2637L149.081 59.6999L130.621 39.904C130.621 39.904 126.608 24.5522 130.22 25.3602C133.832 26.1682 134.634 37.4801 134.634 37.4801L157.909 55.6599C157.909 55.6599 155.502 81.1117 148.68 89.9996L143.463 106.563L137.845 84.3437Z" fill="#FFB9B9"/>
<path d="M129.016 77.4757C134.779 77.4757 139.45 72.773 139.45 66.9718C139.45 61.1707 134.779 56.4679 129.016 56.4679C123.254 56.4679 118.583 61.1707 118.583 66.9718C118.583 72.773 123.254 77.4757 129.016 77.4757Z" fill="#FFB9B9"/>
<path d="M124.201 72.6278C124.201 72.6278 124.602 81.1117 122.194 83.9397C119.786 86.7677 117.379 101.312 129.016 101.716C140.654 102.12 139.45 89.5956 139.45 89.5956L137.042 82.7277C137.042 82.7277 133.43 77.4757 134.634 72.6278H124.201Z" fill="#FFB9B9"/>
<path d="M113.366 166.759L121.993 169.385C121.993 169.385 129.016 165.143 129.016 169.183C129.016 173.223 126.608 178.475 127.411 182.111C128.214 185.747 129.819 194.635 127.411 194.635C125.003 194.635 120.188 178.879 120.188 178.879L112.162 174.435L113.366 166.759Z" fill="#FFB9B9"/>
<path d="M124.201 223.318L120.99 235.842C120.99 235.842 118.181 239.478 120.99 241.094C122.308 241.853 123.273 243.411 123.926 244.853C124.495 246.151 125.447 247.241 126.652 247.975C127.858 248.709 129.259 249.052 130.665 248.957C132.035 248.843 133.189 248.298 133.469 246.881C133.547 246.436 133.532 245.98 133.425 245.542C133.318 245.104 133.121 244.693 132.848 244.335C129.888 240.308 129.217 237.66 129.217 237.66L130.421 223.52L124.201 223.318Z" fill="#FFB9B9"/>
<path d="M116.43 68.8373C116.43 68.8373 119.972 63.9337 123.072 63.0422C126.172 62.1506 126.614 57.6928 126.614 57.6928C126.614 57.6928 134.585 66.6084 139.456 67.0542C144.326 67.5 139.898 56.3555 139.898 56.3555L131.042 54.1266L122.629 55.0181L115.987 59.4759L116.43 68.8373Z" fill="#2F2E41"/>
<path d="M109.754 136.055L108.149 139.287C108.149 139.287 69.2233 151.811 72.4337 163.527C75.644 175.243 93.7023 172.011 93.7023 172.011L113.767 175.647L115.773 166.759L101.728 163.123L125.806 154.235L126.608 195.443L123.398 224.934L131.424 225.742C131.424 225.742 140.252 198.675 139.049 187.363C139.049 187.363 153.896 141.307 145.469 134.439C137.042 127.571 109.754 136.055 109.754 136.055Z" fill="#2F2E41"/>
<path d="M129.487 89.6012L123.225 81.9827L118.984 83.9397L114.57 98.0795C114.57 98.0795 110.958 104.947 115.372 112.219C115.372 112.219 116.175 117.067 114.971 118.279C113.767 119.491 113.366 127.167 113.366 127.167L108.149 137.267C108.149 137.267 137.845 142.519 146.673 135.247C146.673 135.247 142.041 118.053 144.85 112.801C147.659 107.549 148.06 99.4973 144.85 95.8614C141.639 92.2254 138.246 82.7277 138.246 82.7277L136.303 81.4764L129.487 89.6012Z" fill="#CFCCE0"/>
<path d="M152.897 29.2835H149.048V25.4089H148.698V29.2835H144.85V29.6356H148.698V33.5103H149.048V29.6356H152.897V29.2835Z" fill="#CFCCE0"/>
<path d="M116.319 21.1822H112.47V17.3075H112.12V21.1822H108.271V21.5342H112.12V25.4089H112.47V21.5342H116.319V21.1822Z" fill="#CFCCE0"/>
<path d="M133.876 3.87466H130.028V0H129.677V3.87466H125.829V4.22672H129.677V8.10138H130.028V4.22672H133.876V3.87466Z" fill="#CFCCE0"/>
</g>
<defs>
<clipPath id="clip0_14_533">
<rect width="248" height="272" fill="white"/>
</clipPath>
</defs>
</svg>
