<svg width="13" height="22" viewBox="0 0 13 22" fill="none" xmlns="http://www.w3.org/2000/svg">
<mask id="mask0_15_696" style="mask-type:alpha" maskUnits="userSpaceOnUse" x="0" y="0" width="13" height="22">
<path fill-rule="evenodd" clip-rule="evenodd" d="M8 22H4C3.44772 22 3 21.5523 3 21V14H1C0.447715 14 0 13.5523 0 13V9C0 8.44771 0.447715 8 1 8H3V6C3.00386 2.68789 5.68789 0.00385738 9 0H12C12.5523 0 13 0.447715 13 1V5C13 5.55228 12.5523 6 12 6H9V8H12C12.3078 8.00008 12.5984 8.1419 12.7878 8.38448C12.9773 8.62706 13.0445 8.94336 12.97 9.242L11.97 13.242C11.8589 13.6873 11.459 13.9999 11 14H9V21C9 21.5523 8.55229 22 8 22ZM2 10V12H4C4.55228 12 5 12.4477 5 13V20H7V13C7 12.4477 7.44772 12 8 12H10.22L10.72 10H8C7.44772 10 7 9.55229 7 9V6C7 4.89543 7.89543 4 9 4H11V2H9C6.79086 2 5 3.79086 5 6V9C5 9.55229 4.55228 10 4 10H2Z" fill="white"/>
</mask>
<g mask="url(#mask0_15_696)">
<rect x="-6" y="-1" width="24" height="24" fill="#4A80FF"/>
</g>
</svg>
