<svg width="16" height="20" viewBox="0 0 16 20" fill="none" xmlns="http://www.w3.org/2000/svg">
<path fill-rule="evenodd" clip-rule="evenodd" d="M7.81344 4.609C7.87744 4.617 7.94244 4.617 8.00644 4.617H8.01044C9.06377 4.55901 10.0374 4.03761 10.6694 3.193C11.3984 2.29547 11.7562 1.15299 11.6694 0C10.5634 0.114286 9.54662 0.658772 8.83844 1.516C8.10156 2.37109 7.73305 3.48307 7.81344 4.609ZM2.03844 17.467C2.92644 18.8 3.82244 20 5.00644 20H5.07344C5.55638 19.967 6.02743 19.8353 6.45744 19.613C7.0044 19.3332 7.6091 19.185 8.22344 19.18C8.81071 19.1849 9.38847 19.3289 9.90944 19.6C10.3495 19.8341 10.8381 19.9622 11.3364 19.974H11.3944C12.7364 19.948 13.5874 18.657 14.3364 17.517C14.9107 16.6375 15.3581 15.6814 15.6654 14.677V14.67C14.0792 13.9535 13.0679 12.3655 13.0894 10.625C13.0896 9.08931 13.8686 7.65851 15.1584 6.825L15.1664 6.82C14.3824 5.62772 13.0704 4.88792 11.6444 4.834C11.5431 4.82337 11.4413 4.81803 11.3394 4.818C10.5679 4.86741 9.81318 5.06501 9.11644 5.4C8.75711 5.58064 8.37011 5.69995 7.97144 5.753C7.55657 5.70541 7.15337 5.58489 6.78044 5.397C6.17643 5.10253 5.52094 4.9283 4.85044 4.884H4.79844C3.1186 4.94846 1.60072 5.90409 0.816437 7.391C0.0278778 9.02333 -0.197537 10.871 0.175437 12.645C0.465154 14.3615 1.09884 16.0016 2.03844 17.467Z" fill="black"/>
</svg>
